<svg version="1.2" xmlns="http://www.w3.org/2000/svg" viewBox="0 0 60 60" width="60" height="60">
	<title>Logo-svg</title>
	<defs>
		<clipPath clipPathUnits="userSpaceOnUse" id="cp1">
			<path d="m30 60c16.57 0 30-13.43 30-30 0-16.57-13.43-30-30-30-16.57 0-30 13.43-30 30 0 16.57 13.43 30 30 30z"/>
		</clipPath>
		<clipPath clipPathUnits="userSpaceOnUse" id="cp2">
			<path d="m40.19 19.03q0.31-0.18 0.66-0.2c1.01-0.07 3.95-0.15 4.58 0.95 0.64 1.1-0.9 3.6-1.46 4.45q-0.2 0.29-0.5 0.46l-6.08 3.51 0.84 17.1c0.02 0.24-0.1 0.47-0.31 0.59l-1.25 0.75q-0.26 0.15-0.55 0.06l-0.94-0.33q-0.25-0.09-0.37-0.32l-6.46-12.63-6.37 3.68-0.68 4.67c-0.05 0.32-0.33 0.56-0.66 0.55l-0.5-0.01c-0.25 0-0.47-0.15-0.58-0.38l-1.79-4.02c-1.23 0.04-2.38-0.08-2.69-0.62-0.31-0.53 0.16-1.59 0.81-2.63l-2.56-3.53c-0.15-0.2-0.17-0.47-0.04-0.7l0.24-0.43c0.16-0.29 0.5-0.41 0.81-0.29l4.36 1.73 6.38-3.68-7.66-11.83q-0.14-0.22-0.09-0.48l0.19-0.98q0.06-0.3 0.32-0.45l1.27-0.71c0.21-0.11 0.47-0.1 0.67 0.03l14.3 9.22z"/>
		</clipPath>
	</defs>
	<style>
		.s0 { opacity: 0;fill: #000000 } 
		.s1 { fill: #2196f3 } 
		.s2 { fill: none;stroke: #42a5f5;stroke-width: 4 } 
		.s3 { fill: none;stroke: #42a5f5;stroke-linecap: square;stroke-width: 4 } 
		.s4 { fill: none;stroke: #42a5f5;stroke-linecap: round;stroke-linejoin: round;stroke-width: 4 } 
		.s5 { fill: #ffffff } 
		.s6 { fill: #ebecf2 } 
		.s7 { fill: #dee1e3 } 
		.s8 { opacity: .4;fill: #dee1e3 } 
		.s9 { fill: #c5c6cc } 
	</style>
	<g id="Layer">
		<path id="Layer" fill-rule="evenodd" class="s0" d="m30 60c12.2 0 22-9.8 22-22 0-12.2-9.8-22-22-22-12.2 0-22 9.8-22 22 0 12.2 9.8 22 22 22z"/>
	</g>
	<g id="Layer">
		<path id="Layer" fill-rule="evenodd" class="s1" d="m30 60c16.6 0 30-13.4 30-30 0-16.6-13.4-30-30-30-16.6 0-30 13.4-30 30 0 16.6 13.4 30 30 30z"/>
		<path id="Layer" fill-rule="evenodd" class="s2" d="m58 30c0 15.5-12.5 28-28 28-15.5 0-28-12.5-28-28 0-15.5 12.5-28 28-28 15.5 0 28 12.5 28 28z"/>
	</g>
	<g id="Clip-Path" clip-path="url(#cp1)">
		<g id="Layer">
			<path id="Layer" fill-rule="evenodd" class="s3" d="m2.7 22.9h53.8"/>
			<path id="Layer" fill-rule="evenodd" class="s3" d="m2.7 38.6h53.8"/>
			<path id="Layer" fill-rule="evenodd" class="s4" d="m29.3 4.5c-0.1 0-10 11.6-9.8 26.3 0.2 14.6 9.8 24.7 9.8 24.7"/>
			<path id="Layer" fill-rule="evenodd" class="s4" d="m30 4.5c0 0 10 11.6 9.7 26.3-0.2 14.6-9.7 24.7-9.7 24.7"/>
		</g>
	</g>
	<path id="Layer" fill-rule="evenodd" class="s5" d="m40.2 19q0.3-0.1 0.6-0.2c1.1 0 4-0.1 4.6 1 0.7 1.1-0.9 3.6-1.4 4.4q-0.2 0.3-0.5 0.5l-6.1 3.5 0.8 17.1c0 0.2-0.1 0.5-0.3 0.6l-1.2 0.7q-0.3 0.2-0.6 0.1l-0.9-0.3q-0.3-0.1-0.4-0.3l-6.4-12.7-6.4 3.7-0.7 4.7c-0.1 0.3-0.3 0.5-0.7 0.5h-0.5c-0.2 0-0.4-0.1-0.5-0.4l-1.8-4c-1.3 0.1-2.4-0.1-2.7-0.6-0.3-0.5 0.1-1.6 0.8-2.6l-2.6-3.6c-0.1-0.2-0.1-0.4 0-0.7l0.2-0.4c0.2-0.3 0.5-0.4 0.8-0.3l4.4 1.7 6.4-3.6-7.7-11.9q-0.1-0.2-0.1-0.4l0.2-1q0.1-0.3 0.3-0.5l1.3-0.7c0.2-0.1 0.5-0.1 0.7 0l14.3 9.3z"/>
	<g id="Clip-Path" clip-path="url(#cp2)">
		<g id="Layer">
			<path id="Layer" class="s6" d="m34.5 20.8l0.7 1.1-10.8 6.2-0.6-1.1z"/>
			<path id="Layer" fill-rule="evenodd" class="s7" d="m37.9 45.9c0.2-0.1 0.3-0.4 0.3-0.6l-0.8-17.7-9.3 5.4 6.7 13.1q0.1 0.2 0.4 0.3l0.9 0.3q0.3 0.1 0.6-0.1z"/>
			<path id="Layer" fill-rule="evenodd" class="s8" d="m17.8 37.8l-0.1 0.1 1.9 4c0.1 0.3 0.3 0.4 0.5 0.4h0.5c0.4 0 0.6-0.2 0.7-0.5l0.7-5-0.4 0.3q-0.3 0.1-0.5 0.2c-0.5 0.1-1.9 0.4-3.3 0.5z"/>
			<path id="Layer" fill-rule="evenodd" class="s9" d="m28.2 33.2l9.2-5.3 0.1 2.1-7.5 6.6z"/>
			<path id="Layer" fill-rule="evenodd" class="s7" d="m46.5 23l-29.8 17.2c0 0-0.9-1.6-1.6-2.9q0 0 0-0.1c1.3 0.1 4 0 6.7-1.5l20.6-11.9c2.3-1.3 2.8-3 3.2-3.8 0.4 1.3 0.9 3 0.9 3z"/>
		</g>
	</g>
</svg>